<svg width="24" height="24" viewBox="0 0 24 24" fill="none" xmlns="http://www.w3.org/2000/svg">
    <path
        d="M16.6748 4.9248L12.2998 9.27539L10.75 7.6748L12.1748 6.25H12.0254C10.1087 6.25 8.48371 6.91298 7.15039 8.23828C5.81706 9.56295 5.15039 11.1752 5.15039 13.0752C5.15044 14.9751 5.81711 16.5915 7.15039 17.9248C8.4837 19.2581 10.1 19.9248 12 19.9248C13.8998 19.9248 15.5164 19.2629 16.8496 17.9385C18.1829 16.6132 18.8496 14.9918 18.8496 13.0752H21.5C21.5 14.3918 21.25 15.6255 20.75 16.7754C20.25 17.9252 19.5708 18.9295 18.7129 19.7881C17.8543 20.646 16.8501 21.3252 15.7002 21.8252C14.5502 22.3252 13.3167 22.5752 12 22.5752C10.6833 22.5752 9.4498 22.3252 8.2998 21.8252C7.14988 21.3252 6.14604 20.646 5.28809 19.7881C4.4295 18.9295 3.74999 17.9252 3.25 16.7754C2.75003 15.6255 2.50003 14.3918 2.5 13.0752C2.5 11.7585 2.75 10.525 3.25 9.375C3.74998 8.22505 4.42947 7.22095 5.28809 6.3623C6.14605 5.50434 7.14986 4.82891 8.2998 4.33691C9.4498 3.84558 10.6921 3.59961 12.0254 3.59961H12.1748L10.75 2.1748L12.2998 0.549805L16.6748 4.9248ZM14.1055 10.1348C14.6557 10.1348 15.1309 10.2574 15.5312 10.502C15.9315 10.7445 16.2401 11.0982 16.457 11.5635C16.674 12.0289 16.7813 12.5942 16.7793 13.2588C16.7793 13.9272 16.671 14.4994 16.4541 14.9746C16.2372 15.4496 15.9285 15.8131 15.5283 16.0654C15.13 16.3159 14.6557 16.4414 14.1055 16.4414C13.5553 16.4394 13.08 16.312 12.6797 16.0596C12.2795 15.8072 11.9708 15.4438 11.7539 14.9688C11.537 14.4936 11.4297 13.9232 11.4316 13.2588C11.4336 12.5922 11.5419 12.026 11.7568 11.5605C11.9737 11.0952 12.2814 10.7416 12.6797 10.499C13.08 10.2565 13.5553 10.1348 14.1055 10.1348ZM10.2227 16.2754H8.57812V11.7324H8.54297L7.21777 12.5244V11.1289L8.70801 10.2178H10.2227V16.2754ZM14.1055 11.46C13.8215 11.46 13.5896 11.6038 13.4102 11.8916C13.2307 12.1795 13.1387 12.6356 13.1348 13.2588C13.1328 13.6826 13.174 14.0316 13.2568 14.3057C13.3397 14.5778 13.4537 14.779 13.5996 14.9092C13.7475 15.0393 13.9162 15.1045 14.1055 15.1045C14.3894 15.1045 14.6223 14.956 14.8037 14.6602C14.9869 14.3624 15.0781 13.8953 15.0762 13.2588C15.0762 12.8428 15.034 12.5025 14.9512 12.2383C14.8684 11.9741 14.7543 11.7786 14.6084 11.6523C14.4625 11.5242 14.2948 11.46 14.1055 11.46Z"
        fill="black" />
</svg>
