<svg width="24" height="24" viewBox="0 0 24 24" fill="none" xmlns="http://www.w3.org/2000/svg">
    <path
        d="M12 22.575C10.6833 22.575 9.45 22.325 8.3 21.825C7.15 21.325 6.14567 20.646 5.287 19.788C4.429 18.9293 3.75 17.925 3.25 16.775C2.75 15.625 2.5 14.3917 2.5 13.075H5.15C5.15 14.9917 5.81667 16.6127 7.15 17.938C8.48333 19.2627 10.1 19.925 12 19.925C13.9 19.925 15.5167 19.2583 16.85 17.925C18.1833 16.5917 18.85 14.975 18.85 13.075C18.85 11.175 18.1833 9.56265 16.85 8.23799C15.5167 6.91265 13.8917 6.24999 11.975 6.24999H11.825L13.25 7.67499L11.7 9.27499L7.325 4.92499L11.7 0.549988L13.25 2.17499L11.825 3.59999H11.975C13.3083 3.59999 14.55 3.84565 15.7 4.33699C16.85 4.82899 17.854 5.50399 18.712 6.36199C19.5707 7.22065 20.25 8.22499 20.75 9.37499C21.25 10.525 21.5 11.7583 21.5 13.075C21.5 14.3917 21.25 15.625 20.75 16.775C20.25 17.925 19.5707 18.9293 18.712 19.788C17.854 20.646 16.85 21.325 15.7 21.825C14.55 22.325 13.3167 22.575 12 22.575Z"
        fill="#141414" />
    <path
        d="M10.2229 10.3882V16.4464H8.57822V11.9027H8.54272L7.2175 12.6955V11.2993L8.70838 10.3882H10.2229ZM14.1054 16.612C13.5552 16.6101 13.08 16.4829 12.6796 16.2304C12.2793 15.978 11.9707 15.6142 11.7537 15.1389C11.5368 14.6636 11.4293 14.0937 11.4313 13.4291C11.4333 12.7626 11.5417 12.1966 11.7567 11.7312C11.9736 11.2658 12.2813 10.9118 12.6796 10.6692C13.08 10.4267 13.5552 10.3054 14.1054 10.3054C14.6556 10.3054 15.1309 10.4276 15.5312 10.6722C15.9316 10.9147 16.2402 11.2687 16.4571 11.7341C16.674 12.1995 16.7815 12.7645 16.7795 13.4291C16.7795 14.0977 16.6711 14.6696 16.4542 15.1448C16.2372 15.6201 15.9286 15.9839 15.5283 16.2364C15.1299 16.4868 14.6556 16.612 14.1054 16.612ZM14.1054 15.275C14.3894 15.275 14.6221 15.1271 14.8035 14.8313C14.9869 14.5335 15.0777 14.0661 15.0757 13.4291C15.0757 13.013 15.0343 12.6728 14.9514 12.4086C14.8686 12.1443 14.7542 11.9491 14.6083 11.8229C14.4624 11.6947 14.2947 11.6306 14.1054 11.6306C13.8214 11.6306 13.5897 11.7746 13.4103 12.0625C13.2308 12.3504 13.1391 12.8059 13.1352 13.4291C13.1332 13.8531 13.1736 14.2022 13.2565 14.4763C13.3393 14.7484 13.4537 14.9496 13.5996 15.0797C13.7475 15.2099 13.9161 15.275 14.1054 15.275Z"
        fill="black" />
</svg>
